<?xml version="1.0" standalone="no"?>
<!DOCTYPE svg PUBLIC "-//W3C//DTD SVG 20010904//EN"
 "http://www.w3.org/TR/2001/REC-SVG-20010904/DTD/svg10.dtd">
<svg version="1.0" xmlns="http://www.w3.org/2000/svg"
 width="280.000000pt" height="280.000000pt" viewBox="0 0 280.000000 280.000000"
 preserveAspectRatio="xMidYMid meet">
<metadata>
Created by potrace 1.14, written by Peter Selinger 2001-2017
</metadata>
<g transform="translate(0.000000,280.000000) scale(0.100000,-0.100000)"
fill="#000000" stroke="none">
<path d="M0 1400 l0 -1400 1400 0 1400 0 0 1400 0 1400 -1400 0 -1400 0 0
-1400z m1626 1084 c429 -88 763 -403 880 -829 26 -92 28 -114 28 -285 0 -168
-3 -194 -26 -282 -95 -351 -333 -629 -657 -767 -77 -33 -129 -39 -149 -19 -8
8 -12 67 -12 198 0 198 -12 277 -50 330 -26 36 -25 40 8 40 105 1 263 69 343
149 65 66 101 137 123 243 34 164 13 311 -60 419 l-35 52 12 72 c11 64 10 81
-7 151 l-19 79 -45 -2 c-55 -1 -137 -31 -214 -78 l-57 -34 -72 16 c-98 22
-326 22 -426 0 l-73 -16 -67 39 c-73 43 -175 80 -219 80 -27 0 -31 -4 -46 -58
-18 -65 -21 -160 -6 -211 9 -31 6 -40 -30 -94 -55 -82 -74 -151 -73 -267 2
-235 89 -397 257 -476 76 -36 172 -64 218 -64 31 0 37 -20 13 -40 -8 -7 -22
-37 -31 -67 -17 -60 -28 -68 -113 -79 -72 -9 -140 16 -185 69 -20 23 -55 63
-77 89 -47 54 -92 78 -147 78 -56 0 -62 -17 -21 -52 73 -61 100 -93 126 -147
40 -84 69 -118 126 -149 48 -25 61 -27 165 -27 l112 0 0 -111 c0 -135 -7 -149
-71 -142 -24 3 -79 21 -123 41 -591 274 -832 981 -533 1561 172 332 505 562
882 606 90 11 260 3 351 -16z m-936 -1604 c0 -5 -4 -10 -10 -10 -5 0 -10 5
-10 10 0 6 5 10 10 10 6 0 10 -4 10 -10z m48 -49 c3 -8 -1 -12 -9 -9 -7 2 -15
10 -17 17 -3 8 1 12 9 9 7 -2 15 -10 17 -17z m47 -59 c0 -18 -20 -15 -23 4 -3
10 1 15 10 12 7 -3 13 -10 13 -16z m65 -73 c0 -12 -27 -11 -35 1 -11 17 5 32
21 19 8 -6 14 -15 14 -20z m75 -39 c0 -22 -29 -18 -33 3 -3 14 1 18 15 15 10
-2 18 -10 18 -18z m183 -2 c-7 -19 -38 -22 -38 -4 0 10 9 16 21 16 12 0 19 -5
17 -12z m-88 -13 c0 -8 -9 -15 -20 -15 -11 0 -20 7 -20 15 0 8 9 15 20 15 11
0 20 -7 20 -15z"/>
</g>
</svg>
